<svg width="206" height="53" viewBox="0 0 206 53" fill="none" xmlns="http://www.w3.org/2000/svg">
<g clip-path="url(#clip0_2205_3154)">
<path d="M90.5609 33.3087C89.5314 33.3087 88.6324 33.0843 87.8872 32.6355C87.1342 32.1868 86.558 31.5755 86.1508 30.8018C85.7436 30.0281 85.5361 29.1538 85.5361 28.1866V14.1436H88.1484V28.5116C88.1484 29.2234 88.3712 29.8114 88.8168 30.2757C89.2624 30.7399 89.8464 30.972 90.5686 30.972H95.6779V33.3009H90.5686L90.5609 33.3087Z" fill="#0B376B"/>
<path d="M104.69 33.3087C103.169 33.3087 101.816 33.0224 100.641 32.4499C99.4655 31.8773 98.5435 31.0649 97.8827 30.0127C97.222 28.9604 96.8916 27.7379 96.8916 26.3297C96.8916 24.9216 97.1759 23.6991 97.7367 22.5927C98.2976 21.4862 99.0813 20.6197 100.072 19.9775C101.071 19.3353 102.231 19.0181 103.553 19.0181C104.982 19.0181 106.173 19.3276 107.126 19.9465C108.078 20.5655 108.785 21.4011 109.261 22.4534C109.73 23.5057 109.968 24.674 109.968 25.9738C109.968 26.175 109.968 26.3839 109.953 26.6005C109.945 26.8172 109.922 27.0106 109.884 27.1731H99.5576C99.6498 28.0319 99.9264 28.7592 100.403 29.3473C100.871 29.943 101.478 30.3841 102.208 30.6858C102.946 30.9876 103.753 31.1346 104.644 31.1346H108.263V33.2932H104.705L104.69 33.3087ZM99.5269 25.4013H107.433C107.433 25.0531 107.394 24.6817 107.325 24.2949C107.256 23.9003 107.126 23.5211 106.941 23.142C106.757 22.7706 106.519 22.4302 106.219 22.1284C105.919 21.8267 105.55 21.5868 105.105 21.4011C104.659 21.2154 104.137 21.1303 103.545 21.1303C102.907 21.1303 102.354 21.2541 101.87 21.5017C101.394 21.7493 100.979 22.0743 100.633 22.4843C100.288 22.8944 100.026 23.3587 99.8419 23.8693C99.6575 24.38 99.55 24.8906 99.5192 25.4013H99.5269Z" fill="#0B376B"/>
<path d="M118.097 33.6336C116.753 33.6336 115.6 33.3086 114.617 32.6587C113.641 32.0088 112.888 31.1268 112.358 30.0203C111.835 28.9062 111.566 27.6759 111.566 26.3219C111.566 24.9679 111.858 23.7145 112.435 22.6158C113.011 21.5094 113.848 20.6351 114.932 19.9851C116.023 19.3352 117.321 19.0103 118.842 19.0103C120.364 19.0103 121.57 19.3275 122.622 19.9697C123.675 20.6119 124.482 21.4784 125.058 22.5694C125.627 23.6681 125.911 24.8905 125.911 26.2368V33.3009H123.383V30.4536H123.329C123.06 30.9797 122.692 31.4904 122.231 31.9701C121.77 32.4498 121.193 32.8522 120.502 33.1616C119.81 33.4711 119.004 33.6259 118.082 33.6259L118.097 33.6336ZM118.75 31.4749C119.657 31.4749 120.456 31.2505 121.155 30.8018C121.854 30.353 122.4 29.7341 122.784 28.9371C123.176 28.1402 123.368 27.2504 123.368 26.2678C123.368 25.2851 123.183 24.4341 122.807 23.6681C122.438 22.9021 121.908 22.2986 121.216 21.8498C120.525 21.4011 119.718 21.1767 118.796 21.1767C117.82 21.1767 116.975 21.4088 116.284 21.8576C115.585 22.314 115.055 22.933 114.678 23.7068C114.309 24.4805 114.117 25.3625 114.117 26.3451C114.117 27.3278 114.302 28.1557 114.663 28.9294C115.024 29.7031 115.554 30.3221 116.238 30.7786C116.929 31.2351 117.759 31.4595 118.735 31.4595L118.75 31.4749Z" fill="#0B376B"/>
<path d="M128.992 33.3085V23.3198C128.992 22.0818 129.338 21.1069 130.037 20.4028C130.736 19.6988 131.697 19.3506 132.934 19.3506H135.784V21.5093H133.395C132.795 21.5093 132.327 21.6795 131.996 22.0277C131.658 22.3758 131.497 22.8555 131.497 23.4823V33.3085H129H128.992Z" fill="#0B376B"/>
<path d="M137.282 33.3087V25.2311C137.282 23.9931 137.559 22.9022 138.112 21.9737C138.665 21.0452 139.434 20.3179 140.409 19.7995C141.385 19.2811 142.499 19.0181 143.751 19.0181C145.004 19.0181 146.141 19.2811 147.109 19.7995C148.077 20.3179 148.838 21.0452 149.391 21.9737C149.944 22.9022 150.221 23.9931 150.221 25.2311V33.3087H147.724V25.262C147.724 24.4264 147.539 23.6991 147.163 23.0878C146.794 22.4766 146.302 22.0046 145.695 21.6797C145.088 21.3547 144.443 21.1845 143.751 21.1845C143.06 21.1845 142.415 21.347 141.808 21.6797C141.201 22.0046 140.709 22.4766 140.34 23.0878C139.971 23.6991 139.779 24.4264 139.779 25.262V33.3087H137.282Z" fill="#0B376B"/>
<path d="M153.186 33.3085V31.1499H159.816C160.254 31.1499 160.631 31.057 160.946 30.8636C161.261 30.6701 161.506 30.4226 161.668 30.1131C161.829 29.8036 161.914 29.4709 161.914 29.1304C161.914 28.8055 161.844 28.496 161.699 28.2097C161.553 27.9234 161.33 27.6991 161.03 27.5288C160.73 27.3586 160.377 27.2658 159.954 27.2658H157.158C156.267 27.2658 155.498 27.1188 154.837 26.817C154.177 26.5153 153.662 26.0742 153.285 25.4862C152.917 24.9059 152.725 24.1941 152.725 23.3507C152.725 22.6389 152.894 21.9812 153.239 21.3777C153.585 20.7742 154.061 20.2868 154.684 19.9154C155.298 19.544 156.005 19.3506 156.804 19.3506H163.189V21.5093H157.043C156.482 21.5093 156.036 21.6795 155.713 22.0277C155.391 22.3758 155.222 22.7859 155.222 23.2579C155.222 23.7299 155.391 24.109 155.721 24.4494C156.059 24.7899 156.535 24.9523 157.15 24.9523H159.816C160.815 24.9523 161.652 25.1148 162.329 25.432C163.005 25.7493 163.527 26.2135 163.881 26.817C164.234 27.4205 164.411 28.1555 164.411 29.0376C164.411 29.7881 164.226 30.4845 163.865 31.1344C163.504 31.7843 162.997 32.3104 162.359 32.705C161.714 33.1074 160.969 33.3085 160.116 33.3085H153.186Z" fill="#0B376B"/>
<path d="M173.339 33.3089V14.2676H181.629C182.82 14.2676 183.895 14.5229 184.871 15.0413C185.847 15.5597 186.615 16.287 187.191 17.2155C187.768 18.1517 188.052 19.2426 188.052 20.496C188.052 21.7495 187.729 22.8868 187.091 23.854C186.454 24.8212 185.593 25.5485 184.51 26.0204L186.538 30.1521C186.684 30.4461 186.838 30.655 187.015 30.7943C187.191 30.9336 187.429 30.9955 187.76 30.9955H189.112V33.3089H187.353C186.653 33.3089 186.031 33.1309 185.501 32.7673C184.971 32.4036 184.533 31.9162 184.187 31.2972L181.921 26.6471C181.744 26.6626 181.544 26.6781 181.337 26.6858C181.129 26.6936 180.922 26.7013 180.699 26.7013H175.92V33.3089H173.323H173.339ZM175.936 24.3879H181.283C182.059 24.3879 182.766 24.2331 183.404 23.9236C184.041 23.6141 184.548 23.1731 184.917 22.5928C185.286 22.0125 185.47 21.3162 185.47 20.496C185.47 19.6759 185.278 18.9563 184.902 18.376C184.525 17.7958 184.018 17.3547 183.388 17.0452C182.758 16.7358 182.067 16.581 181.306 16.581H175.928V24.3879H175.936Z" fill="#0B376B"/>
<path d="M190.849 33.3089V14.2676H193.446V22.4536H203.411V14.2676H206.007V33.3089H203.411V24.767H193.446V33.3089H190.849Z" fill="#0B376B"/>
<path d="M17.7795 3.00036C13.7616 -1.03313 7.25751 -1.02284 3.25222 3.02334C-0.753069 7.06953 -0.742852 13.6194 3.27504 17.6529L35.4876 49.9906C39.5055 54.0241 46.0096 54.0138 50.0149 49.9676C54.0202 45.9214 54.01 39.3715 49.9921 35.338L17.7795 3.00036Z" fill="url(#paint0_linear_2205_3154)"/>
<path d="M69.9857 14.8708L69.5171 14.4066C65.6217 10.4993 59.2524 10.5071 55.3724 14.4298L42.1574 27.7765L42.1805 27.7998L38.5925 31.413C37.6398 32.3725 37.6398 33.9431 38.5925 34.9103C39.5452 35.8697 41.1048 35.8697 42.0652 34.9103L45.6609 31.2892L49.7099 35.3513C53.1443 38.7944 53.636 44.133 51.1851 48.1255L70.0011 29.1151C73.8811 25.1923 73.8734 18.7781 69.978 14.8708H69.9857Z" fill="#0B376B"/>
</g>
<defs>
<linearGradient id="paint0_linear_2205_3154" x1="26.6388" y1="52.9971" x2="26.6388" y2="-0.00289911" gradientUnits="userSpaceOnUse">
<stop offset="0.02" stop-color="#DD1D47"/>
<stop offset="0.2" stop-color="#EA294D"/>
<stop offset="0.4" stop-color="#FF3D58"/>
<stop offset="0.98" stop-color="#F44D71"/>
</linearGradient>
<clipPath id="clip0_2205_3154">
<rect width="206" height="53" fill="white"/>
</clipPath>
</defs>
</svg>
